<?xml version="1.0" standalone="no"?>
<!DOCTYPE svg PUBLIC "-//W3C//DTD SVG 20010904//EN"
 "http://www.w3.org/TR/2001/REC-SVG-20010904/DTD/svg10.dtd">
<svg version="1.0" xmlns="http://www.w3.org/2000/svg"
 width="283.000000pt" height="300.000000pt" viewBox="0 0 283.000000 300.000000"
 preserveAspectRatio="xMidYMid meet">

<g transform="translate(0.000000,300.000000) scale(0.100000,-0.100000)"
fill="#000000" stroke="none">
<path d="M202 2929 c-19 -106 -11 -220 23 -324 4 -12 0 -10 -9 6 -19 33 -56
165 -56 201 0 16 -4 28 -9 28 -22 0 -29 -160 -10 -240 15 -67 62 -157 119
-230 l51 -65 -64 67 c-76 80 -125 172 -141 271 l-12 71 -15 -35 c-33 -80 -5
-226 62 -319 43 -59 47 -43 4 19 -44 66 -65 137 -64 215 l1 61 22 -70 c50
-157 163 -286 339 -385 49 -28 56 -34 45 -48 -7 -8 -12 -24 -10 -34 3 -19 2
-19 -30 -2 -59 30 -145 93 -206 149 -33 30 -61 52 -64 49 -16 -15 -99 122
-129 211 l-13 40 -8 -49 c-6 -31 -5 -68 2 -99 6 -27 8 -52 5 -55 -3 -3 -5 2
-5 11 0 10 -5 17 -11 17 -8 0 -10 -23 -7 -74 4 -54 12 -85 31 -120 28 -51 17
-53 -14 -2 l-19 31 0 -36 c0 -43 16 -93 42 -134 l20 -30 -31 33 c-17 17 -33
32 -35 32 -10 0 8 -77 26 -115 l19 -40 -21 24 c-39 45 -12 -48 33 -114 l20
-30 -33 30 -33 30 7 -30 c4 -16 16 -48 27 -69 16 -30 17 -37 5 -27 -27 23 -20
-11 19 -84 19 -37 27 -61 18 -54 -14 12 -15 11 -8 -11 4 -14 23 -47 43 -75 19
-27 28 -44 18 -36 -29 24 -27 6 6 -45 17 -27 33 -55 34 -63 3 -18 59 -76 108
-112 39 -29 42 -38 5 -19 -32 18 -21 -3 18 -34 20 -16 62 -40 92 -53 31 -12
47 -23 36 -23 -17 0 -18 -2 -4 -15 17 -18 92 -47 203 -81 57 -17 104 -24 162
-24 49 0 86 -4 90 -11 3 -6 -6 -23 -20 -38 -31 -33 -33 -49 -6 -53 18 -3 13
-17 -55 -133 -42 -71 -80 -134 -85 -139 -5 -4 -23 3 -43 18 -39 30 -63 33 -97
9 -16 -11 -25 -13 -28 -5 -17 53 -174 243 -189 229 -2 -3 5 -32 17 -66 11 -33
20 -65 20 -71 0 -5 -23 -1 -51 10 -27 11 -68 24 -90 29 l-40 9 43 -46 c24 -26
66 -78 93 -117 88 -127 108 -141 153 -109 21 15 22 14 22 -13 0 -30 47 -83 74
-83 8 0 18 -5 22 -11 3 -6 20 -9 36 -7 23 4 43 -4 82 -30 52 -36 225 -122 244
-122 22 0 20 -19 -8 -95 -16 -44 -28 -80 -26 -82 2 -2 29 10 60 26 31 17 56
28 56 25 0 -3 -9 -23 -21 -46 l-21 -41 39 8 c21 3 53 16 72 28 l34 21 -6 -25
c-4 -13 -10 -34 -13 -46 -6 -23 -6 -23 32 -7 22 9 54 25 71 36 37 22 40 15 19
-37 l-15 -35 37 16 c20 8 53 28 72 43 l35 28 35 -28 c19 -15 52 -35 72 -43
l37 -16 -15 35 c-21 52 -18 59 19 37 17 -11 49 -27 71 -36 42 -18 40 -23 20
51 l-6 21 48 -24 c26 -13 58 -24 71 -24 l23 0 -20 37 c-11 21 -20 41 -20 45 0
5 22 -4 49 -19 27 -16 53 -25 57 -21 4 4 -5 40 -19 79 -26 69 -27 89 -5 89 20
0 175 77 235 117 46 31 67 39 90 36 17 -3 34 0 37 6 4 6 14 11 22 11 25 0 74
53 74 78 0 13 5 33 11 44 9 17 13 18 20 7 13 -21 11 -29 -8 -23 -15 5 -15 3 2
-11 36 -29 57 -14 138 95 43 58 94 122 114 142 l36 36 -42 -9 c-23 -5 -64 -18
-91 -28 -58 -22 -59 -20 -30 64 11 32 18 60 15 63 -10 10 -122 -118 -159 -182
l-39 -67 -22 21 c-28 27 -51 25 -92 -6 -21 -16 -38 -23 -44 -17 -9 9 -159 263
-159 270 0 1 9 3 20 3 27 0 25 19 -6 51 -14 15 -24 32 -20 37 3 5 52 12 108
15 62 3 127 13 163 25 108 36 169 61 184 77 14 13 13 15 -9 16 -19 0 -16 3 15
13 51 16 93 39 127 70 33 29 36 41 9 26 -37 -19 -34 -10 6 19 40 29 114 109
110 120 -1 3 11 25 27 48 16 23 26 49 23 57 -3 7 5 29 17 47 13 19 27 45 31
59 7 22 6 23 -8 11 -9 -7 -1 17 18 54 38 73 46 107 20 85 -10 -8 -7 6 10 41
34 74 32 89 -7 53 l-31 -29 22 32 c35 51 69 161 36 117 -18 -24 -19 -11 -1 24
13 27 28 102 20 102 -2 0 -17 -15 -34 -32 l-29 -33 30 59 c18 36 29 74 29 100
l0 41 -25 -38 c-35 -51 -39 -46 -8 9 29 52 47 194 24 194 -6 0 -11 -8 -11 -17
0 -9 -2 -14 -5 -12 -2 3 -1 30 4 60 5 30 6 74 2 99 l-7 45 -13 -40 c-22 -64
-67 -147 -100 -185 -26 -29 -25 -25 8 23 71 104 93 219 61 312 l-14 40 -13
-75 c-19 -97 -70 -193 -145 -272 -42 -44 -49 -50 -24 -18 59 73 104 156 127
231 18 58 21 87 17 161 -3 49 -11 95 -17 101 -8 8 -11 3 -11 -19 0 -42 -32
-160 -58 -214 -12 -25 -19 -36 -16 -25 42 133 52 232 34 335 l-13 75 -32 -125
c-54 -215 -113 -329 -230 -445 -80 -80 -148 -119 -290 -165 -140 -46 -165 -60
-233 -136 -51 -56 -66 -67 -93 -67 -35 0 -63 27 -56 55 3 9 -1 25 -8 35 -7 10
-16 33 -20 51 -4 18 -13 36 -21 39 -12 4 -12 8 -2 20 10 12 9 17 -5 27 -11 9
-13 16 -6 23 8 8 6 19 -7 37 -12 20 -14 30 -6 38 8 8 4 20 -17 43 -16 18 -32
50 -36 71 -3 22 -15 53 -26 70 -17 27 -17 33 -4 38 11 4 15 21 15 61 l0 55
-24 -15 c-19 -13 -49 -16 -143 -14 -95 2 -125 -1 -152 -14 -32 -16 -36 -16
-53 -1 -16 15 -18 15 -18 1 0 -11 -6 -13 -22 -9 -14 3 -19 2 -14 -6 5 -8 -3
-12 -26 -12 -18 0 -28 -4 -23 -8 6 -4 11 -22 13 -39 3 -25 -1 -33 -13 -33 -29
0 -85 -65 -85 -96 0 -45 14 -59 29 -30 7 13 24 29 38 35 31 14 32 14 26 -8 -3
-12 -11 -17 -19 -14 -22 8 -17 -31 6 -52 19 -18 65 -18 156 1 23 4 33 2 37
-10 10 -25 -3 -46 -29 -46 -15 0 -24 -6 -24 -15 0 -8 5 -15 10 -15 6 0 10 -5
10 -10 0 -6 -11 -8 -25 -4 -29 7 -31 -2 -9 -34 19 -27 12 -41 -11 -22 -20 16
-19 1 1 -28 10 -14 11 -22 3 -22 -6 0 -9 -7 -5 -15 3 -8 -2 -18 -10 -23 -9 -5
-17 -25 -18 -46 -4 -46 -16 -59 -56 -59 -26 0 -42 11 -92 67 -69 76 -92 90
-243 140 -131 43 -192 77 -268 146 -129 118 -202 269 -264 545 l-9 40 -12 -66z
m54 -159 c61 -198 168 -349 318 -445 31 -19 106 -51 168 -71 153 -49 173 -61
251 -144 65 -71 68 -73 106 -67 l40 5 -3 -37 c-5 -49 -39 -54 -83 -12 -40 38
-117 77 -169 86 -50 10 -74 22 -74 40 0 8 -17 19 -42 25 -201 52 -267 76 -240
87 24 9 10 28 -45 63 -117 74 -226 226 -258 361 -17 72 -21 292 -4 229 5 -19
21 -73 35 -120z m2349 -103 c-27 -108 -81 -204 -159 -282 -40 -40 -93 -84
-119 -100 -45 -26 -47 -29 -32 -45 15 -17 13 -19 -32 -34 -26 -8 -91 -27 -143
-41 -52 -14 -96 -29 -98 -35 -8 -22 -33 -38 -72 -44 -53 -8 -132 -48 -172 -86
-18 -18 -42 -30 -57 -30 -24 0 -27 4 -28 39 l-2 39 39 -5 c38 -5 41 -3 107 67
77 82 101 96 235 138 137 43 211 85 294 168 110 109 195 270 235 449 l14 60 3
-98 c2 -65 -3 -120 -13 -160z m-2425 3 c60 -182 157 -307 308 -397 28 -18 31
-22 17 -33 -9 -8 -13 -20 -9 -33 6 -19 6 -19 -26 -1 -58 35 -160 124 -204 180
-79 102 -126 224 -126 333 0 30 2 52 4 50 2 -2 18 -47 36 -99z m2496 -54 c-37
-157 -149 -302 -320 -411 -28 -19 -29 -19 -22 2 4 13 1 25 -9 33 -14 11 -8 18
42 50 133 84 240 231 288 395 26 90 29 94 33 44 2 -26 -4 -76 -12 -113z
m-1166 52 l-25 -21 25 8 c22 7 23 6 12 -8 -10 -12 -10 -16 0 -19 8 -3 5 -9
-10 -17 -23 -12 -23 -12 -4 -39 11 -15 27 -52 35 -83 9 -30 26 -64 37 -74 14
-12 17 -21 9 -25 -8 -5 -6 -16 5 -38 20 -39 20 -42 -3 -42 -13 0 -21 10 -27
33 l-8 32 -3 -32 c-3 -18 -8 -33 -13 -33 -14 0 -23 41 -11 53 6 6 11 20 10 32
0 17 -1 17 -10 -5 l-10 -25 -18 24 -18 24 -7 -24 -6 -24 -20 25 c-15 20 -20
21 -20 8 0 -26 -21 -33 -27 -9 -6 24 -23 29 -23 7 0 -24 -21 -30 -27 -7 -6 24
-23 29 -23 7 0 -24 -21 -30 -27 -7 -3 12 -9 21 -14 21 -12 0 -11 -7 2 -32 12
-22 4 -68 -11 -68 -6 0 -10 19 -10 43 0 62 -10 71 -61 63 -118 -19 -124 -19
-139 0 -14 16 -13 17 12 10 15 -3 48 -1 73 5 50 13 75 34 28 24 -23 -5 -25 -4
-10 5 9 6 36 14 59 18 23 4 43 12 45 17 2 6 -41 9 -116 7 -103 -3 -121 -6
-140 -24 -27 -25 -35 -19 -22 16 14 35 67 66 114 66 20 0 37 4 37 9 0 4 -11 6
-24 4 -17 -4 -25 0 -28 14 -6 21 11 42 30 35 6 -2 12 1 12 7 0 13 22 10 32 -4
5 -6 8 -5 8 2 0 7 19 22 42 34 37 19 54 21 138 17 52 -3 109 -2 125 2 48 12
51 11 25 -12z m1221 -192 c-45 -129 -190 -278 -349 -360 -32 -17 -33 -17 -30
2 2 10 -3 26 -10 35 -12 14 -9 18 20 33 172 88 315 242 361 389 l22 70 3 -56
c2 -38 -4 -76 -17 -113z m-2582 -162 c63 -76 234 -197 321 -226 9 -3 11 -10 5
-24 -4 -10 -7 -25 -6 -32 3 -17 -23 -10 -94 25 -205 103 -323 240 -333 388
l-4 60 35 -70 c19 -38 53 -93 76 -121z m2621 43 c-43 -114 -147 -213 -305
-292 -96 -48 -109 -52 -102 -32 2 6 -2 19 -10 29 -13 15 -7 20 69 58 164 83
283 196 338 322 l25 56 3 -42 c2 -26 -5 -65 -18 -99z m-1605 117 c-23 -17 -56
-15 -63 4 -2 8 9 12 40 12 40 -1 42 -2 23 -16z m-16 -30 c10 -9 -45 -3 -59 6
-11 7 -5 8 20 4 19 -4 37 -8 39 -10z m193 -99 c-2 -14 -8 -28 -13 -31 -15 -9
-22 25 -9 41 19 22 28 18 22 -10z m42 -9 c-7 -31 -20 -34 -27 -6 -3 12 1 24
11 29 22 12 24 9 16 -23z m84 0 c-4 -29 -22 -23 -26 9 -3 19 0 24 13 19 9 -4
15 -15 13 -28z m40 1 c4 -29 -12 -37 -22 -11 -10 26 -7 46 7 42 6 -3 13 -17
15 -31z m-78 14 c0 -17 -12 -41 -21 -41 -5 0 -9 11 -9 25 0 16 6 25 15 25 8 0
15 -4 15 -9z m-1294 -167 c51 -50 190 -129 296 -169 48 -18 57 -28 37 -41 -6
-3 -8 -15 -6 -26 5 -18 2 -20 -26 -14 -18 4 -78 29 -134 56 -166 81 -260 186
-278 310 l-6 45 32 -55 c18 -30 56 -78 85 -106z m1124 146 c0 -5 -7 -10 -16
-10 -8 0 -12 5 -9 10 3 6 10 10 16 10 5 0 9 -4 9 -10z m1541 -52 c-25 -116
-114 -210 -275 -288 -55 -27 -115 -52 -133 -56 -28 -6 -31 -4 -26 14 2 11 0
23 -6 26 -20 13 -11 23 37 41 182 68 325 172 378 276 14 28 28 49 31 46 3 -3
0 -29 -6 -59z m-1531 -8 c0 -16 -4 -32 -10 -35 -5 -3 -10 3 -10 15 0 16 -4 20
-19 15 -10 -3 -24 1 -31 10 -11 13 -9 15 13 15 14 0 29 5 32 10 11 17 25 0 25
-30z m44 -15 c-3 -14 -10 -25 -15 -25 -11 0 -12 63 -2 74 12 12 24 -22 17 -49z
m46 22 c0 -12 -4 -28 -9 -36 -12 -19 -25 21 -16 49 8 25 25 16 25 -13z m45 13
c7 -12 -5 -60 -15 -60 -9 0 -19 58 -12 65 8 8 20 6 27 -5z m40 -1 c10 -15 -4
-61 -15 -54 -13 8 -13 65 -1 65 6 0 13 -5 16 -11z m45 -18 c0 -17 -4 -33 -10
-36 -11 -7 -25 39 -15 54 12 21 25 11 25 -18z m40 -6 c0 -19 -4 -35 -9 -35
-10 0 -21 57 -13 65 14 13 22 2 22 -30z m44 19 c4 -9 4 -26 0 -37 -5 -16 -8
-17 -15 -6 -11 18 -11 59 0 59 5 0 12 -7 15 -16z m46 -14 c0 -5 -6 -11 -12
-14 -10 -3 -8 -9 5 -19 20 -17 23 -31 4 -24 -9 3 -12 -5 -9 -30 3 -26 1 -34
-9 -31 -17 6 -29 52 -18 69 5 8 9 26 9 41 0 20 4 26 15 22 8 -4 15 -10 15 -14z
m-390 -40 c0 -5 -10 -10 -22 -10 -19 0 -20 2 -8 10 19 13 30 13 30 0z m44 -27
c-4 -16 -13 -35 -20 -43 -12 -12 -14 -10 -14 14 0 16 8 35 18 42 23 18 23 18
16 -13z m52 15 c-3 -7 -7 -25 -10 -40 -4 -16 -11 -28 -16 -28 -17 0 -11 52 8
66 21 17 22 17 18 2z m40 -44 c-8 -32 -26 -31 -26 1 0 31 23 62 28 38 2 -8 1
-25 -2 -39z m50 0 c-8 -31 -22 -31 -28 0 -3 15 2 31 11 41 15 15 16 15 19 0 2
-9 1 -27 -2 -41z m48 1 c-8 -31 -20 -32 -27 -4 -8 28 14 65 26 44 4 -8 5 -26
1 -40z m46 9 c0 -19 -4 -34 -10 -34 -13 0 -24 45 -16 66 10 25 26 6 26 -32z
m50 0 c0 -19 -4 -34 -10 -34 -13 0 -24 45 -16 66 10 25 26 6 26 -32z m-885
-25 c44 -11 90 -24 103 -29 26 -11 29 -32 7 -50 -13 -11 -40 -7 -150 19 -128
31 -150 41 -124 57 6 3 8 17 5 30 l-6 23 42 -15 c24 -8 79 -24 123 -35z m1639
27 c-3 -13 -1 -27 5 -30 26 -16 4 -26 -124 -57 -110 -26 -137 -30 -150 -19
-17 14 -20 36 -4 45 5 4 58 20 117 35 59 16 118 33 132 39 14 5 26 10 28 10 1
1 0 -10 -4 -23z m-1074 -60 c11 -11 -9 -68 -21 -60 -5 3 -9 27 -9 54 0 27 -5
52 -11 56 -8 4 -7 9 2 15 10 6 16 0 22 -24 5 -18 12 -36 17 -41z m-1067 -95
c66 -45 162 -87 241 -107 69 -17 72 -19 56 -44 -5 -9 -5 -19 2 -27 15 -19 1
-17 -94 13 -200 63 -316 156 -353 284 -6 20 4 13 46 -31 30 -31 76 -71 102
-88z m2628 111 c-35 -119 -142 -206 -338 -272 -102 -34 -121 -37 -105 -17 7 8
7 18 2 27 -16 24 -13 26 58 45 139 37 289 125 355 209 34 43 38 45 28 8z
m-1512 -56 c-5 -17 -9 -32 -9 -34 0 -2 -4 0 -10 3 -11 7 -13 64 -3 90 12 32
32 -23 22 -59z m51 24 c0 -36 -10 -61 -21 -54 -10 6 -12 77 -3 87 12 12 24 -4
24 -33z m48 -16 c-2 -22 -7 -39 -13 -39 -12 0 -19 60 -10 83 10 28 27 -3 23
-44z m52 16 c0 -36 -10 -61 -21 -54 -10 6 -12 77 -3 87 12 12 24 -4 24 -33z
m50 7 c0 -31 -11 -67 -20 -67 -12 0 -19 63 -8 83 11 22 28 13 28 -16z m43 -25
c-5 -47 -10 -51 -23 -16 -8 21 -8 34 1 51 16 30 27 13 22 -35z m47 8 c0 -27
-4 -50 -10 -50 -15 0 -24 68 -10 85 18 22 20 20 20 -35z m49 -22 c2 -28 -16
-21 -27 11 -7 21 -7 32 1 40 9 9 14 6 19 -11 3 -13 6 -31 7 -40z m-878 -22
c31 -7 44 -32 27 -53 -14 -17 -41 -14 -191 19 -81 18 -97 24 -91 37 4 9 6 25
6 37 -2 21 -1 21 111 -7 61 -15 124 -30 138 -33z m1574 44 c-4 -12 -1 -28 6
-36 6 -8 10 -16 8 -18 -6 -5 -178 -44 -230 -51 -33 -5 -48 -3 -57 8 -16 19 -5
46 22 52 11 3 59 14 106 24 47 11 96 24 110 30 37 14 42 13 35 -9z m-1435 -31
c51 -11 141 -62 157 -88 22 -35 -1 -43 -49 -16 -25 14 -78 33 -118 43 -77 19
-109 44 -80 62 19 12 34 12 90 -1z m1140 -4 c19 -23 -3 -41 -68 -54 -31 -6
-85 -24 -119 -40 -34 -17 -65 -26 -68 -21 -18 29 67 93 154 116 62 17 86 17
101 -1z m-786 -64 c-9 -23 -20 -41 -24 -41 -12 0 -20 28 -19 63 0 18 3 26 6
20 7 -20 21 -15 29 9 5 18 8 19 15 5 6 -10 4 -30 -7 -56z m279 -14 c-7 -38
-19 -34 -30 11 -13 51 -6 68 17 39 12 -15 16 -32 13 -50z m52 -5 l-7 -27 -13
25 c-8 14 -14 38 -15 54 l0 29 21 -27 c15 -19 19 -34 14 -54z m57 16 c-6 -37
-17 -36 -31 3 -18 52 -15 63 12 43 17 -13 22 -25 19 -46z m-1413 -96 c45 -23
122 -50 175 -62 91 -21 94 -23 86 -45 -5 -14 -4 -27 3 -34 16 -16 -31 -14
-117 4 -170 36 -302 139 -341 265 -6 20 4 14 53 -32 35 -32 96 -74 141 -96z
m1091 131 c-1 -10 -7 -31 -14 -48 l-13 -30 -8 27 c-7 27 8 68 25 68 6 0 10 -8
10 -17z m50 -15 c0 -32 -14 -67 -23 -58 -9 9 -10 55 -2 73 12 28 25 20 25 -15z
m55 13 c3 -10 0 -31 -6 -47 l-11 -29 -10 25 c-10 27 -3 70 12 70 5 0 11 -8 15
-19z m55 -30 c0 -9 -4 -23 -10 -31 -9 -15 -9 -16 -25 35 -2 8 -2 22 2 31 6 15
8 15 20 -2 7 -10 13 -25 13 -33z m1316 -15 c-51 -105 -176 -190 -322 -221
-108 -23 -119 -21 -120 19 l0 34 90 21 c121 29 241 88 313 155 32 30 60 52 62
50 2 -2 -8 -28 -23 -58z m-2161 12 c55 -10 110 -21 121 -23 29 -6 39 -35 20
-54 -14 -13 -27 -13 -104 -2 -116 16 -178 35 -173 52 2 8 4 24 4 37 -1 18 3
22 16 17 9 -4 61 -16 116 -27z m1712 10 c0 -13 2 -29 4 -37 5 -17 -103 -46
-206 -57 -65 -7 -92 7 -79 40 7 18 8 18 137 41 48 9 97 20 110 25 33 13 35 12
34 -12z m-1417 -29 c86 -25 107 -39 59 -39 -19 0 -39 -4 -45 -9 -9 -9 -120 9
-143 23 -14 9 -14 29 1 44 13 13 31 10 128 -19z m1119 17 c15 -18 4 -45 -23
-51 -90 -18 -117 -22 -122 -14 -3 5 -22 9 -42 10 l-37 1 45 21 c36 16 111 38
161 46 4 1 12 -5 18 -13z m-769 -48 c0 -5 -9 -8 -20 -8 -18 0 -19 3 -9 21 9
17 13 19 20 8 5 -8 9 -17 9 -21z m53 12 c4 -15 0 -20 -14 -20 -17 0 -18 3 -7
20 7 11 13 20 14 20 1 0 4 -9 7 -20z m61 -5 c4 -10 -1 -15 -14 -15 -13 0 -18
5 -14 15 4 8 10 15 14 15 4 0 10 -7 14 -15z m56 -6 c0 -5 -7 -9 -15 -9 -9 0
-12 6 -9 15 6 15 24 11 24 -6z m49 -8 c-15 -5 -22 6 -14 19 6 9 10 9 16 -1 5
-8 4 -15 -2 -18z m61 14 c10 -13 9 -15 -8 -15 -15 0 -20 5 -16 15 4 8 7 15 9
15 1 0 8 -7 15 -15z m49 -14 c-15 -5 -22 6 -14 19 6 9 10 9 16 -1 5 -8 4 -15
-2 -18z m-469 9 c0 -5 -13 -10 -30 -10 -16 0 -30 5 -30 10 0 6 14 10 30 10 17
0 30 -4 30 -10z m630 0 c0 -5 -13 -10 -30 -10 -16 0 -30 5 -30 10 0 6 14 10
30 10 17 0 30 -4 30 -10z m-1160 -35 c41 -8 96 -16 122 -20 47 -6 69 -29 53
-55 -18 -29 -294 10 -286 40 2 8 4 25 4 38 -1 18 3 22 16 17 9 -4 50 -13 91
-20z m1735 5 c-4 -12 -2 -27 5 -35 15 -18 9 -20 -87 -39 -98 -20 -197 -18
-200 4 -6 30 15 39 120 55 59 9 118 20 130 25 34 13 39 12 32 -10z m-1462 -1
c54 -11 57 -13 57 -41 0 -26 -3 -29 -22 -25 -13 3 -44 9 -70 12 -47 7 -69 30
-53 55 8 13 19 13 88 -1z m1172 1 c3 -6 4 -19 0 -29 -4 -14 -19 -20 -62 -26
-31 -4 -62 -9 -70 -12 -9 -4 -13 4 -13 25 0 28 4 31 48 40 64 13 90 14 97 2z
m-1836 -119 c65 -33 148 -56 236 -66 59 -6 60 -7 60 -37 l0 -31 -76 6 c-154
12 -281 76 -351 176 -21 30 -38 58 -38 63 0 4 25 -12 56 -37 30 -25 81 -58
113 -74z m1671 -121 l0 -240 -140 0 -140 0 0 40 0 40 97 0 97 0 -28 29 c-16
17 -40 31 -55 33 -24 3 -26 7 -27 53 -1 28 0 36 3 18 2 -18 8 -33 14 -33 5 0
9 15 10 33 1 30 1 31 9 7 4 -14 8 -19 9 -12 2 23 20 12 24 -15 4 -25 4 -24 7
7 l2 35 8 -30 8 -30 1 28 c1 20 5 26 14 20 21 -13 43 -13 62 1 17 12 16 16 -5
80 -25 72 -53 101 -121 124 -43 15 -135 16 -144 2 -3 -5 -16 -10 -29 -10 -28
0 -86 -56 -86 -84 0 -11 -7 -30 -15 -40 -21 -28 -19 -59 6 -80 17 -14 23 -15
29 -6 6 9 9 8 13 -6 4 -16 5 -15 6 4 0 13 5 20 11 17 6 -4 8 -10 5 -15 -3 -5
-1 -11 5 -15 5 -3 11 4 11 17 1 16 4 12 9 -12 l7 -35 2 30 c2 17 5 24 8 18 8
-21 23 -15 24 10 1 18 3 16 9 -8 6 -23 8 -25 9 -8 0 12 6 25 13 29 8 5 9 -4 5
-32 -4 -21 -7 -48 -7 -59 -1 -19 -1 -19 -14 -2 -11 14 -29 17 -100 17 l-86 0
0 160 0 160 230 0 230 0 0 -240z m874 174 c-70 -103 -197 -169 -353 -181 l-76
-6 0 31 c0 29 2 31 55 36 139 16 276 71 360 144 25 22 47 38 49 37 2 -2 -14
-30 -35 -61z m-1826 -47 l3 -29 -58 7 c-67 8 -97 28 -83 55 8 16 16 16 72 6
59 -10 63 -13 66 -39z m1101 1 c-12 -10 -31 -18 -44 -18 -12 0 -37 -3 -54 -6
-29 -6 -31 -5 -31 23 0 29 2 30 63 40 52 7 64 6 75 -7 11 -13 9 -18 -9 -32z
m-1337 7 c92 -8 109 -16 100 -47 -5 -20 -10 -20 -116 -15 -61 3 -128 10 -149
17 -32 9 -36 14 -27 30 5 10 7 25 4 33 -4 13 2 13 49 2 30 -7 93 -16 139 -20z
m1634 19 c-3 -8 -1 -24 4 -34 9 -16 5 -21 -27 -30 -21 -7 -88 -14 -149 -17
-106 -5 -111 -5 -116 15 -9 31 8 39 99 47 65 6 147 20 192 34 2 1 0 -6 -3 -15z
m-2161 -103 c71 -45 161 -70 276 -78 92 -6 99 -8 93 -25 -3 -10 0 -25 6 -33
30 -36 -209 -5 -307 40 -77 35 -120 69 -154 123 -38 60 -37 73 4 35 17 -17 55
-45 82 -62z m2591 36 c-14 -25 -40 -57 -58 -73 -76 -64 -233 -113 -367 -114
-46 0 -52 2 -41 15 6 8 9 23 6 33 -6 17 1 19 93 25 54 4 128 16 164 27 65 20
166 80 202 120 29 32 30 15 1 -33z m-1843 -3 c10 -3 17 -15 17 -30 0 -27 -11
-29 -74 -15 -47 11 -59 22 -50 45 5 14 14 16 48 11 22 -4 49 -9 59 -11z m1111
-1 c10 -24 -38 -48 -101 -52 -18 -1 -23 4 -23 24 0 17 7 26 23 29 12 3 31 7
42 9 40 9 53 7 59 -10z m-1344 -29 c132 -7 142 -10 138 -37 -3 -19 -11 -23
-58 -28 -51 -6 -182 4 -222 17 -12 4 -17 15 -16 38 1 33 2 33 32 25 17 -5 74
-12 126 -15z m1627 -8 c2 -26 -2 -36 -15 -40 -40 -13 -171 -23 -222 -17 -47 5
-55 9 -58 28 -4 27 6 30 138 37 74 5 155 18 155 25 0 1 1 -14 2 -33z m-1263
-35 c-5 -6 -34 20 -34 30 0 5 8 1 18 -8 10 -10 17 -20 16 -22z m-854 -66 c79
-40 154 -55 276 -55 108 0 112 -1 107 -20 -4 -13 1 -26 13 -34 16 -12 9 -15
-59 -21 -192 -18 -357 41 -428 153 -38 61 -37 71 6 33 20 -17 58 -42 85 -56z
m713 70 c36 -7 39 -45 2 -45 -48 0 -90 31 -69 52 5 6 11 5 67 -7z m1097 -9 c0
-16 -42 -36 -75 -36 -33 0 -35 37 -2 44 67 15 77 14 77 -8z m736 -31 c-69
-116 -247 -181 -442 -160 -60 6 -66 9 -50 20 12 9 16 20 11 34 -6 20 -3 21
107 21 162 0 269 32 358 108 19 17 37 28 39 26 2 -1 -9 -24 -23 -49z m-1627 3
c-1 -25 -3 -27 -6 -10 -4 18 -7 21 -18 12 -11 -9 -14 -7 -12 9 1 13 8 21 19
21 14 0 18 -7 17 -32z m-260 -12 c20 -13 12 -36 -16 -48 -33 -13 -205 -14
-248 -1 -21 7 -31 16 -33 34 l-3 25 144 -2 c80 -1 150 -4 156 -8z m1426 -16
c0 -32 -35 -41 -155 -42 -100 -1 -150 11 -150 36 0 26 26 31 167 31 l138 -1 0
-24z m-1367 4 c13 -4 22 -14 22 -26 0 -16 -5 -19 -22 -14 -13 3 -26 6 -30 6
-5 0 -8 9 -8 20 0 22 3 23 38 14z m1052 -14 c0 -11 -3 -20 -7 -20 -5 0 -18 -3
-30 -6 -18 -5 -23 -2 -23 14 0 19 14 28 48 31 6 0 12 -8 12 -19z m-830 -19 c0
-11 -4 -23 -10 -26 -6 -4 -10 5 -10 19 0 14 5 26 10 26 6 0 10 -9 10 -19z m37
-33 c-2 -13 -4 -5 -4 17 -1 22 1 32 4 23 2 -10 2 -28 0 -40z m-273 6 c9 -8 16
-19 16 -23 0 -16 -97 -36 -180 -36 -110 0 -140 8 -140 39 0 23 1 23 93 19 50
-3 108 -1 127 5 50 15 67 14 84 -4z m1239 1 c104 0 107 0 107 -22 0 -30 -31
-38 -140 -38 -93 1 -180 20 -180 41 0 22 33 35 70 27 19 -5 83 -8 143 -8z
m-1861 -77 c102 -31 219 -34 338 -6 9 2 16 -6 18 -22 2 -14 8 -28 14 -31 20
-13 -60 -31 -159 -36 -84 -5 -112 -2 -170 16 -76 23 -153 77 -185 129 l-21 34
52 -32 c29 -18 80 -41 113 -52z m655 50 c-3 -7 -5 -2 -5 12 0 14 2 19 5 13 2
-7 2 -19 0 -25z m980 0 c-3 -7 -5 -2 -5 12 0 14 2 19 5 13 2 -7 2 -19 0 -25z
m795 0 c-31 -50 -108 -104 -184 -129 -58 -18 -84 -21 -171 -17 -61 3 -116 11
-137 21 -19 8 -29 16 -22 16 6 1 12 13 12 27 0 25 0 25 58 17 160 -23 310 2
412 67 25 16 47 29 48 29 2 1 -5 -14 -16 -31z m-1772 -48 c0 -25 -5 -30 -37
-40 -58 -16 -164 -23 -208 -13 -30 7 -41 14 -43 31 -3 21 0 22 85 23 48 0 108
6 133 13 67 20 70 19 70 -14z m1034 15 c28 -9 88 -15 138 -15 87 0 89 -1 86
-22 -2 -17 -13 -24 -43 -31 -44 -10 -150 -3 -207 13 -33 10 -38 15 -38 40 0
35 -1 34 64 15z m-465 -85 l52 -5 -41 -25 c-22 -14 -40 -28 -40 -31 0 -4 7
-26 15 -49 l15 -42 -23 14 c-66 43 -61 43 -102 15 -22 -15 -40 -25 -42 -23 -2
1 4 20 12 40 18 43 12 56 -39 84 l-31 17 54 5 c54 5 55 5 69 49 l15 45 17 -45
c17 -43 19 -44 69 -49z m-1170 -40 c72 -17 220 -8 294 17 49 17 57 18 57 5 0
-9 7 -23 16 -33 14 -16 11 -19 -43 -40 -50 -20 -76 -23 -183 -23 -106 0 -132
3 -171 21 -49 22 -114 74 -129 104 -8 14 1 12 48 -11 31 -15 81 -33 111 -40z
m2332 51 c-16 -30 -81 -81 -130 -104 -38 -17 -66 -21 -166 -21 -103 -1 -130 2
-187 23 -63 23 -66 25 -48 38 11 8 20 22 20 32 0 17 3 17 58 -2 74 -25 222
-34 293 -17 30 7 79 25 109 41 30 15 56 28 58 29 1 0 -2 -8 -7 -19z m-1731
-15 c0 -28 -18 -34 -110 -36 -115 -3 -120 -2 -120 20 0 18 7 20 73 21 39 1 83
5 97 9 46 15 60 12 60 -14z m1113 7 c76 -5 87 -8 87 -24 0 -21 -6 -22 -120
-19 -93 2 -110 7 -110 37 0 23 3 25 28 19 15 -4 66 -10 115 -13z m-812 -88 c3
-28 16 -70 28 -94 25 -48 100 -126 131 -136 19 -6 20 -16 20 -156 0 -109 -3
-149 -12 -149 -7 0 -55 21 -107 46 -170 83 -290 231 -327 403 -7 36 -14 83
-14 104 l0 38 138 -3 137 -3 6 -50z m-297 20 c8 -21 -12 -27 -96 -29 -61 -1
-73 2 -76 16 -3 14 7 18 55 21 32 2 70 4 84 5 16 1 29 -4 33 -13z m1099 5 c26
0 37 -4 37 -15 0 -24 -23 -28 -105 -20 -67 6 -75 9 -75 27 0 19 4 20 53 14 28
-3 69 -6 90 -6z m-1283 -30 c0 -14 7 -20 23 -20 22 -1 22 -1 -5 -24 -72 -63
-264 -95 -370 -62 -48 16 -163 84 -155 92 2 2 25 -5 53 -15 110 -42 263 -33
384 22 68 31 70 32 70 7z m1415 -13 c91 -38 198 -52 281 -38 37 7 83 19 103
27 l35 15 -24 -26 c-94 -100 -315 -113 -472 -28 -51 28 -61 43 -28 43 14 0 20
7 20 21 0 13 5 19 13 16 6 -3 39 -17 72 -30z m-1225 -17 c0 -35 -102 -43 -108
-8 -3 14 6 18 45 21 26 2 51 4 56 5 4 1 7 -7 7 -18z m1059 4 c2 -2 1 -10 -2
-19 -4 -9 -19 -15 -41 -15 -46 0 -66 9 -66 30 0 15 7 16 53 12 28 -2 54 -6 56
-8z m-1174 -33 c3 -11 14 -21 23 -23 11 -3 -1 -14 -38 -36 -85 -50 -152 -67
-260 -67 -82 1 -103 4 -154 28 -32 15 -57 29 -55 32 3 2 25 -1 49 -6 25 -6 88
-9 140 -6 102 5 178 27 240 71 43 31 47 31 55 7z m1234 -6 c95 -63 268 -93
377 -66 67 17 66 6 -2 -26 -53 -25 -70 -28 -164 -28 -113 1 -161 14 -257 71
-33 20 -43 29 -31 32 9 2 20 12 23 23 8 24 8 24 54 -6z m-1109 -19 c0 -15 -24
-28 -34 -19 -13 14 -5 33 14 33 11 0 20 -6 20 -14z m970 1 c0 -19 -10 -27 -26
-20 -21 8 -17 33 6 33 11 0 20 -6 20 -13z m-991 -37 c20 0 -23 -30 -101 -71
-105 -53 -228 -71 -313 -45 l-40 12 78 8 c108 10 195 39 269 90 60 40 64 42
77 24 7 -10 21 -18 30 -18z m1111 -28 c71 -39 142 -59 238 -69 l77 -7 -40 -12
c-86 -27 -207 -9 -318 47 -75 38 -117 69 -94 69 9 0 21 9 28 21 11 21 11 21
32 1 12 -11 47 -33 77 -50z m-1067 -12 c9 -34 -41 -69 -153 -105 -61 -20 -186
-24 -216 -6 -16 8 -11 10 28 11 67 0 193 43 263 89 33 22 63 38 66 35 4 -2 9
-13 12 -24z m1083 -71 c33 -12 87 -24 122 -27 71 -6 73 -12 5 -23 -68 -11
-165 7 -248 45 -76 35 -87 48 -74 83 8 23 9 22 72 -17 36 -23 91 -50 123 -61z
m-1057 -25 c-12 -15 -49 -25 -49 -14 0 5 8 22 17 39 18 30 18 30 30 8 7 -14 8
-26 2 -33z m866 16 c19 -37 19 -39 -5 -33 -31 8 -45 30 -30 48 17 20 17 20 35
-15z m-924 -8 c-22 -41 -48 -53 -128 -59 -89 -7 -92 1 -9 22 31 8 74 24 94 35
46 24 55 25 43 2z m982 1 c18 -9 64 -27 102 -40 l70 -23 -79 4 c-69 4 -82 8
-107 32 -45 44 -39 55 14 27z m-894 -75 c-39 -32 -50 -17 -28 39 l10 28 19
-25 c19 -25 19 -25 -1 -42z m806 15 c7 -37 0 -40 -33 -18 -21 15 -21 17 -5 41
18 29 28 23 38 -23z m-913 -5 c-7 -7 -12 -8 -12 -2 0 14 12 26 19 19 2 -3 -1
-11 -7 -17z m58 -8 c0 -26 -21 -50 -44 -50 -10 0 -7 40 4 61 17 30 40 24 40
-11z m914 -8 c11 -39 5 -47 -23 -32 -27 14 -30 73 -4 68 10 -2 21 -18 27 -36z
m20 22 c3 -8 2 -12 -4 -9 -6 3 -10 10 -10 16 0 14 7 11 14 -7z m-835 -37 c8
-10 7 -17 -1 -25 -19 -19 -28 -14 -28 13 0 27 12 32 29 12z m701 -12 c0 -27
-12 -32 -29 -12 -8 10 -7 17 1 25 19 19 28 14 28 -13z m-860 -10 c0 -23 -35
-54 -47 -41 -5 5 34 66 43 66 2 0 4 -11 4 -25z m120 1 c0 -15 -11 -33 -27 -46
-25 -19 -28 -20 -31 -5 -6 28 7 63 26 68 30 8 32 7 32 -17z m790 6 c15 -12 21
-26 18 -46 l-3 -28 -27 22 c-17 13 -28 31 -28 46 0 29 10 30 40 6z m130 -44
c0 -11 -8 -10 -31 2 -12 7 -19 21 -19 38 l0 27 25 -30 c13 -16 24 -33 25 -37z
m-995 -5 c-4 -53 -55 -89 -55 -38 0 21 38 75 53 75 2 0 3 -17 2 -37z m155 18
c11 -22 4 -51 -13 -51 -7 0 -7 4 1 12 23 23 12 29 -14 9 -15 -12 -31 -21 -35
-21 -18 0 -8 38 14 53 29 21 34 21 47 -2z m635 3 c26 -17 34 -54 13 -54 -6 0
-22 10 -35 22 -23 22 -33 12 -11 -10 8 -8 8 -12 1 -12 -17 0 -24 29 -13 51 13
23 14 23 45 3z m155 -24 c12 -22 13 -60 2 -60 -23 0 -46 31 -48 63 -1 32 1 35
17 26 10 -5 23 -18 29 -29z m-712 -38 c15 -11 23 -29 24 -48 0 -23 -132 -407
-145 -420 -2 -2 -49 19 -105 47 -88 43 -102 53 -102 74 0 14 -9 34 -20 45 -22
22 -20 29 19 74 125 142 153 165 176 146 11 -9 17 -5 29 19 9 16 16 36 16 43
-1 7 -9 -2 -18 -20 -18 -33 -32 -34 -32 -1 0 25 35 43 59 30 16 -9 21 -6 31
19 13 32 19 31 68 -8z m502 8 c10 -25 15 -28 31 -19 13 6 25 6 39 -1 22 -12
24 -19 13 -45 -5 -14 -9 -11 -24 16 -10 19 -18 28 -19 21 0 -7 7 -27 16 -43
12 -24 18 -28 29 -19 9 8 20 8 32 2 23 -13 156 -156 179 -193 2 -4 -4 -17 -16
-29 -11 -11 -20 -31 -20 -45 0 -21 -14 -31 -102 -75 -82 -40 -104 -47 -110
-36 -24 43 -141 386 -140 410 1 19 12 38 34 57 18 16 36 28 39 29 4 0 12 -13
19 -30z m-686 -41 c-35 -37 -44 -37 -44 1 0 22 7 33 28 44 24 13 28 12 36 -1
5 -10 0 -24 -20 -44z m816 46 c23 -12 30 -22 30 -45 0 -17 -4 -30 -9 -30 -16
0 -61 53 -61 71 0 23 3 23 40 4z m184 -147 c67 -115 74 -123 131 -154 33 -19
72 -34 86 -34 15 0 32 -7 39 -15 14 -17 5 -69 -11 -59 -6 3 -9 14 -6 24 4 15
-3 20 -35 25 -49 9 -62 -1 -17 -13 27 -6 35 -14 37 -36 2 -16 -2 -34 -8 -40
-10 -8 -11 -4 -8 19 3 23 0 31 -12 31 -8 1 -24 4 -35 8 -17 6 -17 5 3 -10 27
-20 29 -50 3 -64 -26 -13 -27 -13 -27 10 0 11 5 20 10 20 5 0 -10 17 -34 38
-46 39 -86 56 -96 41 -9 -15 -23 -10 -35 12 -13 26 2 40 33 31 18 -4 19 -3 7
16 -7 11 -16 19 -20 17 -3 -3 -5 6 -4 19 2 17 -3 26 -18 30 -18 4 -19 7 -6 22
9 12 10 15 2 10 -21 -12 -36 3 -21 22 11 13 11 15 -3 10 -9 -3 -22 -2 -29 2
-11 7 -11 11 -1 23 10 13 9 15 -7 10 -24 -6 -40 16 -21 28 11 7 9 9 -7 9 -27
0 -33 7 -27 30 4 15 11 18 29 14 20 -5 24 -2 24 17 0 31 4 25 84 -113z m-1085
99 c16 10 20 8 24 -13 5 -28 -11 -40 -40 -30 -16 5 -16 4 1 -8 22 -18 11 -40
-16 -33 -16 5 -17 3 -7 -10 10 -12 10 -16 -1 -23 -7 -4 -20 -5 -29 -2 -14 5
-14 3 -3 -10 14 -17 1 -35 -17 -24 -5 4 -7 -3 -4 -14 4 -14 0 -20 -11 -20 -10
0 -15 -4 -12 -8 3 -5 -4 -23 -15 -41 -18 -30 -18 -32 -2 -31 39 4 43 1 31 -25
-12 -26 -23 -31 -32 -16 -10 15 -50 -2 -96 -41 -24 -21 -39 -38 -34 -38 5 0
10 -9 10 -20 0 -22 -16 -26 -34 -8 -19 19 -14 40 16 66 l27 23 -33 -16 c-18
-9 -36 -14 -40 -11 -5 3 -6 -9 -4 -27 3 -25 2 -29 -8 -21 -6 6 -10 24 -8 40 2
22 10 30 37 36 18 5 31 12 28 15 -9 9 -87 -8 -82 -18 4 -5 2 -17 -4 -26 -8
-16 -10 -14 -16 10 -9 34 9 57 44 57 14 0 53 15 86 34 57 31 63 39 130 154 62
107 72 120 83 105 10 -14 16 -15 31 -6z m341 -32 c0 -35 -16 -31 -29 6 -14 42
-14 41 9 29 12 -6 20 -21 20 -35z m319 7 c-6 -18 -15 -32 -20 -32 -16 0 -9 49
8 59 24 13 25 10 12 -27z m-1104 -67 c23 -33 50 -75 60 -94 l17 -35 -36 -29
c-20 -16 -36 -37 -36 -47 0 -34 -18 -31 -49 7 -73 90 -160 213 -151 213 6 0
38 -11 71 -25 l62 -25 -6 43 c-3 23 -9 53 -13 67 l-7 25 23 -20 c12 -11 42
-47 65 -80z m1930 30 c-8 -32 -13 -60 -11 -62 1 -2 30 8 64 22 34 14 66 25 71
25 10 0 -91 -142 -153 -215 l-34 -40 -11 30 c-7 17 -26 42 -43 56 l-30 25 17
35 c33 64 132 195 141 187 1 -2 -4 -30 -11 -63z m-1111 39 c17 -7 22 -54 6
-54 -6 0 -15 12 -20 26 -15 37 -14 39 14 28z m246 2 c0 -16 -21 -56 -30 -56
-14 0 -12 47 3 53 16 7 27 8 27 3z m-560 -19 c0 -2 -16 -19 -37 -38 l-36 -34
28 38 c23 30 45 48 45 34z m384 -30 c12 -45 -17 -50 -33 -6 -14 40 -14 38 8
32 11 -3 22 -14 25 -26z m515 -7 c11 -16 16 -27 9 -24 -19 8 -63 65 -45 58 8
-3 24 -18 36 -34z m-400 0 c-12 -33 -26 -39 -35 -15 -9 23 3 45 25 45 18 0 19
-3 10 -30z m-282 -214 c-50 -164 -51 -165 -76 -159 -14 3 -29 7 -32 9 -5 3 22
84 127 374 4 10 10 2 18 -22 12 -35 10 -48 -37 -202z m233 221 c0 -5 -5 -18
-11 -29 -11 -21 -12 -21 -25 -3 -21 28 -17 40 11 40 14 0 25 -4 25 -8z m229
-181 c34 -93 61 -173 61 -178 0 -8 -50 -31 -56 -25 -2 1 -25 76 -52 165 -43
142 -48 167 -38 197 6 21 13 29 17 22 4 -7 35 -88 68 -181z m-379 148 c0 -13
-4 -24 -9 -24 -13 0 -24 37 -16 50 10 16 25 1 25 -26z m275 -3 c-3 -12 -11
-21 -16 -21 -10 0 -12 43 -2 54 12 12 25 -11 18 -33z m-225 -23 c0 -26 -2 -29
-15 -18 -15 13 -20 42 -9 53 13 12 24 -4 24 -35z m180 13 c0 -10 -7 -24 -15
-31 -13 -11 -15 -8 -15 17 0 16 3 33 6 36 11 10 24 -3 24 -22z m-124 -35 c-3
-14 -10 -26 -16 -26 -15 0 -22 40 -9 56 17 21 33 2 25 -30z m69 -5 c-3 -11
-10 -21 -15 -21 -13 0 -24 46 -15 60 12 20 38 -14 30 -39z m-589 -9 c-17 -16
-18 -16 -5 5 7 12 15 20 18 17 3 -2 -3 -12 -13 -22z m448 -26 c-3 -9 -10 -13
-16 -10 -13 8 -27 47 -21 57 8 14 43 -31 37 -47z m211 13 c-9 -16 -20 -27 -25
-24 -15 9 -12 26 6 46 24 27 36 12 19 -22z m425 16 c14 -19 14 -19 -2 -6 -10
7 -18 18 -18 24 0 6 1 8 3 6 1 -2 9 -13 17 -24z m-689 -181 c-16 -69 -30 -127
-33 -129 -9 -10 -69 8 -65 19 3 6 24 77 48 157 l43 145 18 -34 c17 -33 16 -38
-11 -158z m159 126 c-6 -11 -15 -20 -20 -20 -15 0 -22 38 -10 61 l12 21 14
-21 c11 -16 12 -26 4 -41z m184 -100 c25 -80 44 -146 42 -147 -1 -1 -17 -4
-36 -5 l-33 -3 -28 125 c-27 119 -28 127 -12 160 9 19 18 31 20 25 1 -5 23
-75 47 -155z m-236 89 c-2 -11 -7 -20 -13 -21 -14 -2 -29 46 -21 68 6 16 8 16
22 -4 8 -12 14 -31 12 -43z m104 -5 c-7 -14 -17 -22 -22 -19 -14 9 -13 41 3
65 12 20 12 20 21 0 6 -13 5 -29 -2 -46z m-808 35 c14 -11 26 -24 26 -28 0
-10 -88 -48 -127 -55 -49 -8 -49 10 1 59 52 51 63 53 100 24z m1580 -25 c25
-25 43 -50 41 -55 -11 -17 -165 31 -165 52 0 11 51 49 66 49 7 0 34 -21 58
-46z m-910 -29 c15 -23 15 -37 5 -130 l-13 -105 -38 0 c-24 0 -38 5 -38 13 0
26 54 247 61 247 3 0 14 -11 23 -25z m200 -97 c14 -68 26 -126 26 -130 0 -5
-17 -8 -38 -8 l-38 0 -13 105 c-10 93 -10 107 5 130 9 14 20 25 24 25 4 0 19
-55 34 -122z m-104 89 c0 -5 -5 -18 -11 -29 -11 -21 -12 -21 -25 -3 -21 28
-17 40 11 40 14 0 25 -4 25 -8z m-920 -42 c-7 -9 -15 -13 -17 -11 -7 7 7 26
19 26 6 0 6 -6 -2 -15z m876 -2 c9 -12 13 -49 14 -105 l0 -88 -31 0 c-31 0
-31 1 -26 38 4 20 9 67 13 105 4 37 9 67 12 67 3 0 11 -8 18 -17z m68 -55 c4
-40 9 -88 13 -105 5 -31 4 -33 -26 -33 l-31 0 0 85 c0 77 12 125 31 125 4 0 9
-33 13 -72z m-609 52 c3 -5 1 -10 -4 -10 -6 0 -11 5 -11 10 0 6 2 10 4 10 3 0
8 -4 11 -10z m1135 0 c0 -5 -5 -10 -11 -10 -5 0 -7 5 -4 10 3 6 8 10 11 10 2
0 4 -4 4 -10z m-1074 -67 c330 -177 668 -177 998 0 44 24 98 47 118 51 32 6
41 3 72 -25 20 -17 36 -37 36 -45 0 -7 -19 -26 -42 -42 -65 -44 -67 -44 -66
-25 1 10 -2 29 -7 43 l-7 25 21 -24 c15 -17 25 -21 32 -14 7 7 -1 20 -28 42
-20 17 -41 31 -45 31 -4 0 -1 -19 8 -42 17 -49 13 -57 -16 -28 -14 14 -19 28
-15 41 6 19 4 19 -45 -6 -42 -22 -49 -29 -40 -40 7 -8 18 -30 24 -49 8 -24 16
-32 25 -27 10 7 8 17 -8 49 -24 47 -26 56 -10 46 6 -3 19 -24 28 -45 13 -27
21 -35 31 -29 11 7 11 11 1 24 -8 9 -9 16 -4 16 5 0 16 -9 26 -20 16 -19 15
-21 -54 -56 -178 -89 -406 -140 -583 -130 -93 5 -127 13 -98 23 6 3 12 11 12
20 0 8 6 13 13 11 6 -3 12 -11 12 -18 0 -7 6 -15 14 -18 11 -4 12 4 7 34 -14
81 -17 82 -44 28 l-26 -49 -7 35 c-6 26 -3 40 8 53 12 12 13 17 3 17 -7 0 -19
-8 -27 -17 -13 -17 -14 -16 -8 5 4 15 2 22 -8 22 -9 0 -17 -15 -21 -39 -3 -22
-9 -46 -12 -55 -4 -11 -1 -16 10 -16 9 0 16 8 16 20 0 32 17 23 22 -11 l5 -31
-41 6 c-61 10 -235 70 -308 107 -95 48 -198 117 -198 133 0 8 16 28 36 45 31
28 40 31 72 25 20 -4 74 -27 118 -51z m1041 -35 c-3 -8 -6 -5 -6 6 -1 11 2 17
5 13 3 -3 4 -12 1 -19z m-864 -217 c18 -17 -6 -58 -49 -85 -25 -16 -47 -26
-50 -23 -3 3 4 33 17 67 21 57 24 61 48 55 14 -4 30 -10 34 -14z m726 -43 c11
-34 19 -63 16 -66 -10 -10 -95 55 -104 80 -9 24 -7 28 17 37 45 16 49 13 71
-51z m-619 6 c0 -45 -47 -95 -102 -109 l-26 -7 25 75 25 74 39 -10 c22 -5 39
-15 39 -23z m532 -41 c14 -40 21 -73 16 -73 -19 0 -74 28 -90 47 -10 11 -21
33 -24 50 -6 29 -4 31 32 40 22 5 40 9 41 9 0 -1 12 -34 25 -73z m-438 41 c18
-7 21 -46 6 -74 -10 -20 -62 -54 -96 -64 -22 -7 -22 -7 -7 56 8 35 17 69 19
76 4 13 51 16 78 6z m320 -6 c19 -62 31 -138 23 -138 -19 0 -97 51 -107 70
-14 26 -13 67 3 73 25 11 78 7 81 -5z m-206 -35 c2 -18 -2 -41 -8 -53 -10 -19
-88 -75 -95 -68 -2 3 3 39 21 136 4 20 10 23 42 20 34 -3 37 -6 40 -35z m97 0
c3 -21 10 -56 15 -78 5 -21 7 -41 5 -43 -7 -7 -74 39 -90 61 -15 22 -20 78 -8
90 3 4 21 7 39 7 30 0 34 -3 39 -37z"/>
<path d="M1222 2622 c-23 -18 -23 -18 -5 -41 16 -20 23 -22 40 -13 27 15 37
52 15 53 -14 0 -13 2 3 9 18 8 18 9 -5 9 -14 0 -35 -7 -48 -17z"/>
<path d="M1145 2591 c21 -5 30 -12 28 -25 -1 -13 2 -15 9 -8 20 20 0 42 -34
41 l-33 -1 30 -7z"/>
<path d="M1413 2593 c20 -5 21 -8 6 -35 -9 -16 -8 -19 3 -12 11 6 11 5 -1 -9
-7 -9 -10 -17 -6 -17 4 0 2 -7 -5 -15 -20 -24 -6 -27 18 -5 34 32 26 101 -12
99 -17 -1 -17 -2 -3 -6z"/>
<path d="M1351 2534 c9 -10 14 -26 11 -34 -4 -12 -2 -13 9 -2 15 14 3 42 -22
50 -11 4 -10 1 2 -14z"/>
<path d="M1236 2528 c3 -4 21 -8 40 -8 40 0 43 -12 9 -42 -14 -12 -25 -26 -25
-32 0 -8 3 -8 8 0 4 6 17 16 30 23 17 9 22 19 20 39 -3 24 -7 27 -45 28 -23 0
-40 -3 -37 -8z"/>
<path d="M1020 1319 c-1 -33 -1 -33 -16 -14 -14 19 -15 16 -8 -30 8 -60 10
-65 33 -65 9 0 22 -5 29 -12 9 -9 12 -7 12 9 0 12 5 25 10 28 13 8 12 5 -1
-33 -10 -31 -11 -31 -35 -15 -14 8 -27 13 -31 10 -10 -10 18 -37 38 -37 9 0
25 -7 34 -16 18 -18 12 -32 -7 -17 -7 5 -21 13 -31 16 -15 6 -16 4 -5 -16 7
-12 12 -26 13 -30 0 -16 35 -34 58 -30 13 3 29 -2 36 -11 11 -13 8 -14 -26 -9
-35 6 -37 5 -24 -11 9 -10 26 -16 47 -14 19 1 39 -3 46 -10 8 -8 2 -10 -27 -5
-30 5 -37 3 -33 -8 3 -9 20 -14 50 -14 26 0 49 -3 54 -7 4 -5 -9 -8 -29 -8
-21 0 -37 -4 -37 -9 0 -17 38 -22 59 -9 17 10 28 8 70 -12 68 -31 77 -19 11
15 -51 26 -64 52 -31 63 10 3 12 0 8 -11 -7 -18 19 -30 70 -31 25 -1 32 2 29
14 -2 8 -7 32 -11 53 -3 21 -10 35 -15 32 -17 -10 -40 8 -40 32 0 18 -4 24
-15 19 -8 -3 -15 -1 -15 4 0 5 -6 7 -13 4 -10 -3 -13 3 -9 24 3 23 0 30 -17
35 -13 3 -21 13 -21 27 0 24 -24 53 -35 42 -3 -4 -4 5 0 20 13 51 -48 75 -72
28 -12 -23 -10 -27 15 -47 15 -13 22 -23 17 -23 -21 0 -13 -38 10 -50 15 -8
22 -19 19 -33 -5 -29 -11 -31 -19 -6 -6 17 -9 19 -16 8 -5 -8 -9 -25 -9 -39
-1 -23 -2 -23 -11 -6 -8 13 -8 25 2 43 10 19 11 28 1 41 -7 9 -15 24 -18 32
-28 71 -46 100 -56 94 -6 -4 -17 1 -25 11 -12 17 -13 16 -13 -16z m164 -31
c-4 -6 -10 -5 -15 3 -14 22 -10 33 6 19 8 -7 12 -17 9 -22z m-28 -16 c-10 -10
-29 15 -21 28 6 9 10 8 17 -4 6 -10 7 -20 4 -24z m-121 -22 c4 -6 11 -8 16 -5
5 3 6 -1 3 -9 -8 -20 -7 -20 -29 4 -10 11 -13 20 -7 20 6 0 14 -5 17 -10z
m183 -30 c4 -12 2 -13 -9 -2 -18 17 -30 15 -23 -3 4 -8 1 -15 -5 -15 -6 0 -11
9 -11 21 0 15 5 20 22 17 12 -2 23 -10 26 -18z m-107 -50 c-7 -32 -8 -33 -15
-12 -5 14 -3 29 5 38 16 20 19 15 10 -26z m139 -11 c0 -6 -4 -7 -10 -4 -5 3
-10 11 -10 16 0 6 5 7 10 4 6 -3 10 -11 10 -16z m-25 -27 c-8 -9 -25 20 -18
31 3 5 10 2 15 -7 6 -10 7 -20 3 -24z m5 -16 c0 4 3 4 7 1 3 -4 -1 -13 -10
-20 -9 -6 -18 -24 -19 -39 -1 -16 -5 -28 -9 -28 -13 0 -19 33 -8 46 6 7 8 23
4 34 -6 20 -5 21 14 11 12 -7 21 -9 21 -5z m-114 -22 c17 -14 17 -15 1 -10
-10 3 -23 6 -28 6 -5 0 -9 5 -9 10 0 14 13 12 36 -6z m54 -11 c0 -20 -3 -24
-11 -16 -7 7 -9 19 -6 27 10 24 17 19 17 -11z m138 2 c3 -20 3 -20 -12 -1 -9
11 -19 17 -22 13 -4 -4 -1 -13 6 -22 10 -13 9 -15 -9 -15 -21 0 -30 28 -14 44
14 13 48 1 51 -19z m62 -62 c0 -15 -2 -15 -18 0 -24 22 -37 9 -15 -15 15 -16
15 -18 0 -18 -26 0 -40 36 -21 54 18 19 54 5 54 -21z m-126 -8 c7 -27 6 -29
-9 -14 -9 9 -13 23 -9 33 8 21 9 19 18 -19z"/>
<path d="M796 497 c-3 -12 -14 -32 -26 -44 l-20 -22 21 -15 c28 -19 46 -11 65
30 17 35 14 48 -16 64 -14 8 -19 5 -24 -13z m26 -29 c-7 -7 -12 -8 -12 -2 0
14 12 26 19 19 2 -3 -1 -11 -7 -17z m-14 -30 c-2 -6 -10 -14 -16 -16 -7 -2
-10 2 -6 12 7 18 28 22 22 4z"/>
<path d="M850 449 c-7 -17 -19 -37 -27 -44 -12 -12 -9 -17 16 -30 17 -8 32
-15 35 -15 2 0 16 20 29 45 17 31 22 47 14 52 -6 3 -13 1 -15 -5 -2 -7 -9 -18
-16 -25 -13 -12 -16 -20 -16 -37 0 -5 -7 -10 -15 -10 -13 0 -11 9 9 44 23 41
24 56 6 56 -4 0 -13 -14 -20 -31z"/>
<path d="M923 392 c-16 -33 -19 -48 -11 -54 8 -4 19 9 31 37 11 25 23 42 28
39 5 -3 7 -8 5 -12 -2 -4 2 -30 9 -57 l13 -50 11 29 c8 20 9 32 1 40 -5 5 -10
20 -10 31 0 14 -10 26 -25 33 -14 7 -27 12 -28 12 -1 -1 -12 -22 -24 -48z"/>
<path d="M1800 406 c0 -2 9 -25 20 -50 24 -57 12 -59 -26 -4 l-29 42 -3 -37
c-2 -24 -8 -37 -17 -37 -8 0 -14 -8 -12 -17 4 -34 -18 -28 -30 7 -13 40 -2 60
22 40 12 -10 15 -10 15 3 0 22 -11 26 -37 16 -17 -6 -23 -16 -23 -39 0 -21 -5
-30 -16 -30 -11 0 -13 -6 -9 -19 3 -11 1 -22 -5 -26 -11 -7 -30 35 -30 67 0
16 4 19 25 14 18 -5 23 -3 19 7 -9 24 -51 8 -65 -24 l-12 -30 -22 21 c-12 11
-31 20 -43 20 -18 0 -20 -4 -15 -35 3 -19 3 -42 -1 -51 -10 -27 -26 -3 -28 43
l-1 41 -50 -2 c-30 -1 -52 -6 -55 -14 -2 -8 2 -10 13 -6 15 6 17 1 14 -39 -3
-37 -1 -47 11 -47 12 0 14 10 12 45 -3 36 -1 45 12 45 14 0 20 -14 28 -65 2
-14 11 -20 28 -20 23 0 26 5 31 50 3 28 7 42 7 33 1 -10 7 -18 12 -18 6 0 22
-12 35 -27 l24 -28 1 24 0 23 18 -22 c23 -28 62 -20 62 12 0 20 1 20 18 5 15
-14 23 -15 50 -5 28 11 31 16 26 43 l-5 30 17 -25 c10 -14 18 -26 19 -27 1 -2
20 5 43 14 32 12 42 21 41 37 -1 17 -2 18 -6 4 -8 -31 -32 -19 -44 22 -7 22
-18 40 -26 40 -7 0 -13 -2 -13 -4z"/>
<path d="M1021 378 c0 -13 3 -17 6 -10 2 6 9 12 13 12 5 0 1 -20 -10 -45 -11
-25 -15 -45 -10 -45 4 0 11 14 15 30 8 34 25 31 25 -5 0 -29 16 -41 24 -19 7
18 -13 85 -29 96 -19 15 -35 8 -34 -14z"/>
<path d="M952 355 c-14 -31 -15 -35 -3 -35 9 0 25 49 18 56 -2 2 -9 -7 -15
-21z"/>
<path d="M1091 353 c0 -25 1 -26 9 -8 12 27 12 35 0 35 -5 0 -10 -12 -9 -27z"/>
<path d="M1122 366 c3 -4 0 -29 -7 -54 -8 -25 -13 -47 -12 -48 9 -9 61 -7 64
3 3 7 -3 9 -16 6 -15 -4 -21 -1 -21 12 0 11 5 15 15 11 10 -4 15 1 15 15 0 11
-4 17 -10 14 -5 -3 -10 -2 -10 4 0 17 22 24 31 10 7 -11 9 -10 9 4 0 9 -6 17
-14 17 -8 0 -23 3 -33 7 -10 3 -15 3 -11 -1z"/>
<path d="M1576 325 c4 -8 8 -15 10 -15 2 0 4 7 4 15 0 8 -4 15 -10 15 -5 0 -7
-7 -4 -15z"/>
<path d="M1540 255 c0 -14 4 -25 9 -25 4 0 6 11 3 25 -2 14 -6 25 -8 25 -2 0
-4 -11 -4 -25z"/>
</g>
</svg>
